<svg xmlns="http://www.w3.org/2000/svg" width="1501.8026123046875" height="1450.6580810546875" viewBox="-774.3944702148438 -757.1657104492188 1501.8026123046875 1450.6580810546875"><title>Neo4j Graph Visualization</title><desc>Created using Neo4j (http://www.neo4j.com/)</desc><g class="layer relationships"><g class="relationship" transform="translate(-63.79049644544904 573.6831080321674) rotate(384.4806849452121)"><path class="b-outline" fill="#A5ABB6" stroke="none" d="M 25 0.5 L 51.187218857362055 0.5 L 51.187218857362055 -0.5 L 25 -0.5 Z M 92.28878135736205 0.5 L 118.47600021472411 0.5 L 118.47600021472411 3.5 L 125.47600021472411 0 L 118.47600021472411 -3.5 L 118.47600021472411 -0.5 L 92.28878135736205 -0.5 Z"/><text text-anchor="middle" pointer-events="none" font-size="8px" fill="#000000" x="71.73800010736205" y="3" font-family="Helvetica Neue, Helvetica, Arial, sans-serif">ACQUIRE</text></g><g class="relationship" transform="translate(220.79567771961376 473.83789964572696) rotate(418.70029610035556)"><path class="b-outline" fill="#A5ABB6" stroke="none" d="M 25 0.5 L 52.52184843769378 0.5 L 52.52184843769378 -0.5 L 25 -0.5 Z M 85.21325468769378 0.5 L 112.73510312538755 0.5 L 112.73510312538755 3.5 L 119.73510312538755 0 L 112.73510312538755 -3.5 L 112.73510312538755 -0.5 L 85.21325468769378 -0.5 Z"/><text text-anchor="middle" pointer-events="none" font-size="8px" fill="#000000" x="68.86755156269378" y="3" font-family="Helvetica Neue, Helvetica, Arial, sans-serif">ADAPT</text></g><g class="relationship" transform="translate(97.75413153438414 196.0149455531843) rotate(244.72442162207784)"><path class="b-outline" fill="#A5ABB6" stroke="none" d="M 25 0.5 L 54.93417734426606 0.5 L 54.93417734426606 -0.5 L 25 -0.5 Z M 78.75058359426606 0.5 L 108.68476093853212 0.5 L 108.68476093853212 3.5 L 115.68476093853212 0 L 108.68476093853212 -3.5 L 108.68476093853212 -0.5 L 78.75058359426606 -0.5 Z"/><text text-anchor="middle" pointer-events="none" font-size="8px" fill="#000000" x="66.84238046926606" y="3" transform="rotate(180 66.84238046926606 0)" font-family="Helvetica Neue, Helvetica, Arial, sans-serif">ADD</text></g><g class="relationship" transform="translate(411.1683532666452 434.21544744728897) rotate(232.21529433828493)"><path class="b-outline" fill="#A5ABB6" stroke="none" d="M 25 0.5 L 56.65740145879316 0.5 L 56.65740145879316 -0.5 L 25 -0.5 Z M 80.47380770879316 0.5 L 112.13120916758632 0.5 L 112.13120916758632 3.5 L 119.13120916758632 0 L 112.13120916758632 -3.5 L 112.13120916758632 -0.5 L 80.47380770879316 -0.5 Z"/><text text-anchor="middle" pointer-events="none" font-size="8px" fill="#000000" x="68.56560458379316" y="3" transform="rotate(180 68.56560458379316 0)" font-family="Helvetica Neue, Helvetica, Arial, sans-serif">ADD</text></g><g class="relationship" transform="translate(599.5383519147607 421.34186575345353) rotate(295.19421423857784)"><path class="b-outline" fill="#A5ABB6" stroke="none" d="M 25 0.5 L 56.09543988090017 0.5 L 56.09543988090017 -0.5 L 25 -0.5 Z M 79.91184613090017 0.5 L 111.00728601180035 0.5 L 111.00728601180035 3.5 L 118.00728601180035 0 L 111.00728601180035 -3.5 L 111.00728601180035 -0.5 L 79.91184613090017 -0.5 Z"/><text text-anchor="middle" pointer-events="none" font-size="8px" fill="#000000" x="68.00364300590017" y="3" font-family="Helvetica Neue, Helvetica, Arial, sans-serif">ADD</text></g><g class="relationship" transform="translate(334.74606041090055 104.68422833705363) rotate(386.09896313969955)"><path class="b-outline" fill="#A5ABB6" stroke="none" d="M 25 0.5 L 56.19519440783711 0.5 L 56.19519440783711 -0.5 L 25 -0.5 Z M 80.0116006578371 0.5 L 111.20679506567421 0.5 L 111.20679506567421 3.5 L 118.20679506567421 0 L 111.20679506567421 -3.5 L 111.20679506567421 -0.5 L 80.0116006578371 -0.5 Z"/><text text-anchor="middle" pointer-events="none" font-size="8px" fill="#000000" x="68.1033975328371" y="3" font-family="Helvetica Neue, Helvetica, Arial, sans-serif">ADD</text></g><g class="relationship" transform="translate(698.407874591835 23.23986431504912) rotate(183.82907353905182)"><path class="b-outline" fill="#A5ABB6" stroke="none" d="M 25 0.5 L 46.57630517435578 0.5 L 46.57630517435578 -0.5 L 25 -0.5 Z M 89.24818017435578 0.5 L 110.82448534871156 0.5 L 110.82448534871156 3.5 L 117.82448534871156 0 L 110.82448534871156 -3.5 L 110.82448534871156 -0.5 L 89.24818017435578 -0.5 Z"/><text text-anchor="middle" pointer-events="none" font-size="8px" fill="#000000" x="67.91224267435578" y="3" transform="rotate(180 67.91224267435578 0)" font-family="Helvetica Neue, Helvetica, Arial, sans-serif">ADDRESS</text></g><g class="relationship" transform="translate(529.9704826513886 -172.36604288959296) rotate(343.7205548560488)"><path class="b-outline" fill="#A5ABB6" stroke="none" d="M 25 0.5 L 48.19971569807525 0.5 L 48.19971569807525 -0.5 L 25 -0.5 Z M 87.31690319807525 0.5 L 110.5166188961505 0.5 L 110.5166188961505 3.5 L 117.5166188961505 0 L 110.5166188961505 -3.5 L 110.5166188961505 -0.5 L 87.31690319807525 -0.5 Z"/><text text-anchor="middle" pointer-events="none" font-size="8px" fill="#000000" x="67.75830944807525" y="3" font-family="Helvetica Neue, Helvetica, Arial, sans-serif">ADOLFO</text></g><g class="relationship" transform="translate(345.3392645691732 -230.82608576924935) rotate(497.2842429236737)"><path class="b-outline" fill="#A5ABB6" stroke="none" d="M 25 0.5 L 50.79894263933974 0.5 L 50.79894263933974 -0.5 L 25 -0.5 Z M 84.52159888933974 0.5 L 110.32054152867948 0.5 L 110.32054152867948 3.5 L 117.32054152867948 0 L 110.32054152867948 -3.5 L 110.32054152867948 -0.5 L 84.52159888933974 -0.5 Z"/><text text-anchor="middle" pointer-events="none" font-size="8px" fill="#000000" x="67.66027076433974" y="3" transform="rotate(180 67.66027076433974 0)" font-family="Helvetica Neue, Helvetica, Arial, sans-serif">ADOPT</text></g><g class="relationship" transform="translate(605.5871726664483 -422.0787253412164) rotate(206.13264879485303)"><path class="b-outline" fill="#A5ABB6" stroke="none" d="M 25 0.5 L 51.695507819454875 0.5 L 51.695507819454875 -0.5 L 25 -0.5 Z M 83.17988281945487 0.5 L 109.87539063890975 0.5 L 109.87539063890975 3.5 L 116.87539063890975 0 L 109.87539063890975 -3.5 L 109.87539063890975 -0.5 L 83.17988281945487 -0.5 Z"/><text text-anchor="middle" pointer-events="none" font-size="8px" fill="#000000" x="67.43769531945487" y="3" transform="rotate(180 67.43769531945487 0)" font-family="Helvetica Neue, Helvetica, Arial, sans-serif">AGREE</text></g><g class="relationship" transform="translate(280.9483601292179 -433.4851347815068) rotate(282.90116497945604)"><path class="b-outline" fill="#A5ABB6" stroke="none" d="M 25 0.5 L 52.63250020456839 0.5 L 52.63250020456839 -0.5 L 25 -0.5 Z M 84.11687520456839 0.5 L 111.74937540913677 0.5 L 111.74937540913677 3.5 L 118.74937540913677 0 L 111.74937540913677 -3.5 L 111.74937540913677 -0.5 L 84.11687520456839 -0.5 Z"/><text text-anchor="middle" pointer-events="none" font-size="8px" fill="#000000" x="68.37468770456839" y="3" font-family="Helvetica Neue, Helvetica, Arial, sans-serif">AGREE</text></g><g class="relationship" transform="translate(96.5065676143674 -506.8912813806914) rotate(458.2321872383466)"><path class="b-outline" fill="#A5ABB6" stroke="none" d="M 25 0.5 L 52.578801577678746 0.5 L 52.578801577678746 -0.5 L 25 -0.5 Z M 84.06317657767875 0.5 L 111.64197815535749 0.5 L 111.64197815535749 3.5 L 118.64197815535749 0 L 111.64197815535749 -3.5 L 111.64197815535749 -0.5 L 84.06317657767875 -0.5 Z"/><text text-anchor="middle" pointer-events="none" font-size="8px" fill="#000000" x="68.32098907767875" y="3" transform="rotate(180 68.32098907767875 0)" font-family="Helvetica Neue, Helvetica, Arial, sans-serif">AGREE</text></g><g class="relationship" transform="translate(92.02506367900781 -728.1656689993449) rotate(538.6117616483298)"><path class="b-outline" fill="#A5ABB6" stroke="none" d="M 25 0.5 L 50.064787709696915 0.5 L 50.064787709696915 -0.5 L 25 -0.5 Z M 86.18978770969692 0.5 L 111.25457541939383 0.5 L 111.25457541939383 3.5 L 118.25457541939383 0 L 111.25457541939383 -3.5 L 111.25457541939383 -0.5 L 86.18978770969692 -0.5 Z"/><text text-anchor="middle" pointer-events="none" font-size="8px" fill="#000000" x="68.12728770969692" y="3" transform="rotate(180 68.12728770969692 0)" font-family="Helvetica Neue, Helvetica, Arial, sans-serif">AHMED</text></g><g class="relationship" transform="translate(-122.54874392696513 -447.9762136138077) rotate(240.03979124214192)"><path class="b-outline" fill="#A5ABB6" stroke="none" d="M 25 0.5 L 53.154373538229535 0.5 L 53.154373538229535 -0.5 L 25 -0.5 Z M 82.61921728822954 0.5 L 110.77359082645907 0.5 L 110.77359082645907 3.5 L 117.77359082645907 0 L 110.77359082645907 -3.5 L 110.77359082645907 -0.5 L 82.61921728822954 -0.5 Z"/><text text-anchor="middle" pointer-events="none" font-size="8px" fill="#000000" x="67.88679541322954" y="3" transform="rotate(180 67.88679541322954 0)" font-family="Helvetica Neue, Helvetica, Arial, sans-serif">ALTER</text></g><g class="relationship" transform="translate(-26.739086598362373 -56.140659419433035) rotate(251.20942960038474)"><path class="b-outline" fill="#A5ABB6" stroke="none" d="M 25 0.5 L 45.72818293606018 0.5 L 45.72818293606018 -0.5 L 25 -0.5 Z M 88.02115168606018 0.5 L 108.74933462212036 0.5 L 108.74933462212036 3.5 L 115.74933462212036 0 L 108.74933462212036 -3.5 L 108.74933462212036 -0.5 L 88.02115168606018 -0.5 Z"/><text text-anchor="middle" pointer-events="none" font-size="8px" fill="#000000" x="66.87466731106018" y="3" transform="rotate(180 66.87466731106018 0)" font-family="Helvetica Neue, Helvetica, Arial, sans-serif">ANIMATE</text></g><g class="relationship" transform="translate(-390.05154020765644 -581.9688949467496) rotate(512.4030247120861)"><path class="b-outline" fill="#A5ABB6" stroke="none" d="M 25 0.5 L 41.03454910028171 0.5 L 41.03454910028171 -0.5 L 25 -0.5 Z M 94.41736160028171 0.5 L 110.45191070056342 0.5 L 110.45191070056342 3.5 L 117.45191070056342 0 L 110.45191070056342 -3.5 L 110.45191070056342 -0.5 L 94.41736160028171 -0.5 Z"/><text text-anchor="middle" pointer-events="none" font-size="8px" fill="#000000" x="67.72595535028171" y="3" transform="rotate(180 67.72595535028171 0)" font-family="Helvetica Neue, Helvetica, Arial, sans-serif">ANNOUNCE</text></g><g class="relationship" transform="translate(-255.99134451092593 -233.15125435327082) rotate(233.08598741962078)"><path class="b-outline" fill="#A5ABB6" stroke="none" d="M 25 0.5 L 41.00497901151088 0.5 L 41.00497901151088 -0.5 L 25 -0.5 Z M 94.38779151151088 0.5 L 110.39277052302177 0.5 L 110.39277052302177 3.5 L 117.39277052302177 0 L 110.39277052302177 -3.5 L 110.39277052302177 -0.5 L 94.38779151151088 -0.5 Z"/><text text-anchor="middle" pointer-events="none" font-size="8px" fill="#000000" x="67.69638526151088" y="3" transform="rotate(180 67.69638526151088 0)" font-family="Helvetica Neue, Helvetica, Arial, sans-serif">ANNOUNCE</text></g><g class="relationship" transform="translate(-622.4007212540773 -298.02525328533494) rotate(392.6087472286591)"><path class="b-outline" fill="#A5ABB6" stroke="none" d="M 25 0.5 L 49.4853635873512 0.5 L 49.4853635873512 -0.5 L 25 -0.5 Z M 86.1963010873512 0.5 L 110.6816646747024 0.5 L 110.6816646747024 3.5 L 117.6816646747024 0 L 110.6816646747024 -3.5 L 110.6816646747024 -0.5 L 86.1963010873512 -0.5 Z"/><text text-anchor="middle" pointer-events="none" font-size="8px" fill="#000000" x="67.8408323373512" y="3" font-family="Helvetica Neue, Helvetica, Arial, sans-serif">APPEAR</text></g><g class="relationship" transform="translate(-661.5462190316684 -87.07172672324405) rotate(486.2758022962855)"><path class="b-outline" fill="#A5ABB6" stroke="none" d="M 25 0.5 L 49.00149708675919 0.5 L 49.00149708675919 -0.5 L 25 -0.5 Z M 85.71243458675919 0.5 L 109.71393167351837 0.5 L 109.71393167351837 3.5 L 116.71393167351837 0 L 109.71393167351837 -3.5 L 109.71393167351837 -0.5 L 85.71243458675919 -0.5 Z"/><text text-anchor="middle" pointer-events="none" font-size="8px" fill="#000000" x="67.35696583675919" y="3" transform="rotate(180 67.35696583675919 0)" font-family="Helvetica Neue, Helvetica, Arial, sans-serif">APPEAR</text></g><g class="relationship" transform="translate(-308.44403489500877 2.973510807926006) rotate(533.0967764774317)"><path class="b-outline" fill="#A5ABB6" stroke="none" d="M 25 0.5 L 49.15843505909484 0.5 L 49.15843505909484 -0.5 L 25 -0.5 Z M 85.86937255909484 0.5 L 110.02780761818968 0.5 L 110.02780761818968 3.5 L 117.02780761818968 0 L 110.02780761818968 -3.5 L 110.02780761818968 -0.5 L 85.86937255909484 -0.5 Z"/><text text-anchor="middle" pointer-events="none" font-size="8px" fill="#000000" x="67.51390380909484" y="3" transform="rotate(180 67.51390380909484 0)" font-family="Helvetica Neue, Helvetica, Arial, sans-serif">APPEAR</text></g><g class="relationship" transform="translate(-635.1107788598928 233.15940403881112) rotate(348.8962989105271)"><path class="b-outline" fill="#A5ABB6" stroke="none" d="M 25 0.5 L 49.81747901139808 0.5 L 49.81747901139808 -0.5 L 25 -0.5 Z M 86.52841651139808 0.5 L 111.34589552279616 0.5 L 111.34589552279616 3.5 L 118.34589552279616 0 L 111.34589552279616 -3.5 L 111.34589552279616 -0.5 L 86.52841651139808 -0.5 Z"/><text text-anchor="middle" pointer-events="none" font-size="8px" fill="#000000" x="68.17294776139808" y="3" font-family="Helvetica Neue, Helvetica, Arial, sans-serif">APPEAR</text></g><g class="relationship" transform="translate(-505.81087715295115 398.2859775600081) rotate(458.1070488801826)"><path class="b-outline" fill="#A5ABB6" stroke="none" d="M 25 0.5 L 48.92243989334074 0.5 L 48.92243989334074 -0.5 L 25 -0.5 Z M 85.63337739334074 0.5 L 109.55581728668147 0.5 L 109.55581728668147 3.5 L 116.55581728668147 0 L 109.55581728668147 -3.5 L 109.55581728668147 -0.5 L 85.63337739334074 -0.5 Z"/><text text-anchor="middle" pointer-events="none" font-size="8px" fill="#000000" x="67.27790864334074" y="3" transform="rotate(180 67.27790864334074 0)" font-family="Helvetica Neue, Helvetica, Arial, sans-serif">APPEAR</text></g><g class="relationship" transform="translate(-185.86088509839792 200.48001051905524) rotate(490.802611802047)"><path class="b-outline" fill="#A5ABB6" stroke="none" d="M 25 0.5 L 49.02347664697912 0.5 L 49.02347664697912 -0.5 L 25 -0.5 Z M 85.73441414697912 0.5 L 109.75789079395824 0.5 L 109.75789079395824 3.5 L 116.75789079395824 0 L 109.75789079395824 -3.5 L 109.75789079395824 -0.5 L 85.73441414697912 -0.5 Z"/><text text-anchor="middle" pointer-events="none" font-size="8px" fill="#000000" x="67.37894539697912" y="3" transform="rotate(180 67.37894539697912 0)" font-family="Helvetica Neue, Helvetica, Arial, sans-serif">APPEAR</text></g><g class="relationship" transform="translate(-301.5890859274797 619.0285511680406) rotate(294.6721884236161)"><path class="b-outline" fill="#A5ABB6" stroke="none" d="M 25 0.5 L 49.742649471907356 0.5 L 49.742649471907356 -0.5 L 25 -0.5 Z M 86.45358697190736 0.5 L 111.19623644381471 0.5 L 111.19623644381471 3.5 L 118.19623644381471 0 L 111.19623644381471 -3.5 L 111.19623644381471 -0.5 L 86.45358697190736 -0.5 Z"/><text text-anchor="middle" pointer-events="none" font-size="8px" fill="#000000" x="68.09811822190736" y="3" font-family="Helvetica Neue, Helvetica, Arial, sans-serif">APPEAR</text></g><g class="relationship" transform="translate(18.82477266529146 517.8798943920145) rotate(465.8338083052618)"><path class="b-outline" fill="#A5ABB6" stroke="none" d="M 25 0.5 L 54.341899710232255 0.5 L 54.341899710232255 -0.5 L 25 -0.5 Z M 91.05283721023225 0.5 L 120.39473692046451 0.5 L 120.39473692046451 3.5 L 127.39473692046451 0 L 120.39473692046451 -3.5 L 120.39473692046451 -0.5 L 91.05283721023225 -0.5 Z"/><text text-anchor="middle" pointer-events="none" font-size="8px" fill="#000000" x="72.69736846023225" y="3" transform="rotate(180 72.69736846023225 0)" font-family="Helvetica Neue, Helvetica, Arial, sans-serif">APPEAR</text></g><g class="relationship" transform="translate(-26.739086598362373 -56.140659419433035) rotate(422.722206137401)"><path class="b-outline" fill="#A5ABB6" stroke="none" d="M 25 0.5 L 41.31706571094094 0.5 L 41.31706571094094 -0.5 L 25 -0.5 Z M 92.25456571094094 0.5 L 108.57163142188188 0.5 L 108.57163142188188 3.5 L 115.57163142188188 0 L 108.57163142188188 -3.5 L 108.57163142188188 -0.5 L 92.25456571094094 -0.5 Z"/><text text-anchor="middle" pointer-events="none" font-size="8px" fill="#000000" x="66.78581571094094" y="3" font-family="Helvetica Neue, Helvetica, Arial, sans-serif">WERE_CALL</text></g></g><g class="layer nodes"><g class="node" aria-label="graph-node5644" transform="translate(-63.79049644544904,573.6831080321674)"><circle class="b-outline" cx="0" cy="0" r="25" fill="#C990C0" stroke="#b261a5" stroke-width="2px"/><text class="caption" text-anchor="middle" pointer-events="none" x="0" y="5" font-size="10px" fill="#FFFFFF" font-family="Helvetica Neue, Helvetica, Arial, sans-serif"> Weinste…</text></g><g class="node" aria-label="graph-node4050" transform="translate(73.15786437604552,636.0383252070549)"><circle class="b-outline" cx="0" cy="0" r="25" fill="#C990C0" stroke="#b261a5" stroke-width="2px"/><text class="caption" text-anchor="middle" pointer-events="none" x="0" y="5" font-size="10px" fill="#FFFFFF" font-family="Helvetica Neue, Helvetica, Arial, sans-serif"> U.S</text></g><g class="node" aria-label="graph-node6991" transform="translate(220.79567771961376,473.83789964572696)"><circle class="b-outline" cx="0" cy="0" r="25" fill="#C990C0" stroke="#b261a5" stroke-width="2px"/><text class="caption" text-anchor="middle" pointer-events="none" x="0" y="5" font-size="10px" fill="#FFFFFF" font-family="Helvetica Neue, Helvetica, Arial, sans-serif"> Darabont</text></g><g class="node" aria-label="graph-node6977" transform="translate(295.98769083371104,597.5084751298169)"><circle class="b-outline" cx="0" cy="0" r="25" fill="#C990C0" stroke="#b261a5" stroke-width="2px"/><text class="caption" text-anchor="middle" pointer-events="none" x="0" y="-10" font-size="10px" fill="#FFFFFF" font-family="Helvetica Neue, Helvetica, Arial, sans-serif"> Two</text><text class="caption" text-anchor="middle" pointer-events="none" x="0" y="0" font-size="10px" fill="#FFFFFF" font-family="Helvetica Neue, Helvetica, Arial, sans-serif"> Other</text><text class="caption" text-anchor="middle" pointer-events="none" x="0" y="10" font-size="10px" fill="#FFFFFF" font-family="Helvetica Neue, Helvetica, Arial, sans-serif"> King</text><text class="caption" text-anchor="middle" pointer-events="none" x="0" y="20" font-size="10px" fill="#FFFFFF" font-family="Helvetica Neue, Helvetica, Arial, sans-serif">St…</text></g><g class="node" aria-label="graph-node4030" transform="translate(97.75413153438414,196.0149455531843)"><circle class="b-outline" cx="0" cy="0" r="25" fill="#C990C0" stroke="#b261a5" stroke-width="2px"/><text class="caption" text-anchor="middle" pointer-events="none" x="0" y="0" font-size="10px" fill="#FFFFFF" font-family="Helvetica Neue, Helvetica, Arial, sans-serif"> Technical</text><text class="caption" text-anchor="middle" pointer-events="none" x="0" y="10" font-size="10px" fill="#FFFFFF" font-family="Helvetica Neue, Helvetica, Arial, sans-serif"> Impro…</text></g><g class="node" aria-label="graph-node4462" transform="translate(37.685611594926286,68.79869316138145)"><circle class="b-outline" cx="0" cy="0" r="25" fill="#C990C0" stroke="#b261a5" stroke-width="2px"/><text class="caption" text-anchor="middle" pointer-events="none" x="0" y="5" font-size="10px" fill="#FFFFFF" font-family="Helvetica Neue, Helvetica, Arial, sans-serif"> Length</text></g><g class="node" aria-label="graph-node6059" transform="translate(411.1683532666452,434.21544744728897)"><circle class="b-outline" cx="0" cy="0" r="25" fill="#C990C0" stroke="#b261a5" stroke-width="2px"/><text class="caption" text-anchor="middle" pointer-events="none" x="0" y="5" font-size="10px" fill="#FFFFFF" font-family="Helvetica Neue, Helvetica, Arial, sans-serif"> Consum…</text></g><g class="node" aria-label="graph-node4567" transform="translate(322.8597219996093,320.3058732234635)"><circle class="b-outline" cx="0" cy="0" r="25" fill="#C990C0" stroke="#b261a5" stroke-width="2px"/><text class="caption" text-anchor="middle" pointer-events="none" x="0" y="5" font-size="10px" fill="#FFFFFF" font-family="Helvetica Neue, Helvetica, Arial, sans-serif"> Problem</text></g><g class="node" aria-label="graph-node4548" transform="translate(599.5383519147607,421.34186575345353)"><circle class="b-outline" cx="0" cy="0" r="25" fill="#C990C0" stroke="#b261a5" stroke-width="2px"/><text class="caption" text-anchor="middle" pointer-events="none" x="0" y="5" font-size="10px" fill="#FFFFFF" font-family="Helvetica Neue, Helvetica, Arial, sans-serif"> Dilation</text></g><g class="node" aria-label="graph-node7184" transform="translate(660.414825960153,291.93885666841896)"><circle class="b-outline" cx="0" cy="0" r="25" fill="#C990C0" stroke="#b261a5" stroke-width="2px"/><text class="caption" text-anchor="middle" pointer-events="none" x="0" y="5" font-size="10px" fill="#FFFFFF" font-family="Helvetica Neue, Helvetica, Arial, sans-serif"> 51 Years</text></g><g class="node" aria-label="graph-node5792" transform="translate(334.74606041090055,104.68422833705363)"><circle class="b-outline" cx="0" cy="0" r="25" fill="#C990C0" stroke="#b261a5" stroke-width="2px"/><text class="caption" text-anchor="middle" pointer-events="none" x="0" y="5" font-size="10px" fill="#FFFFFF" font-family="Helvetica Neue, Helvetica, Arial, sans-serif"> Nfpb</text></g><g class="node" aria-label="graph-node5657" transform="translate(463.35085152379696,167.68417957346566)"><circle class="b-outline" cx="0" cy="0" r="25" fill="#C990C0" stroke="#b261a5" stroke-width="2px"/><text class="caption" text-anchor="middle" pointer-events="none" x="0" y="5" font-size="10px" fill="#FFFFFF" font-family="Helvetica Neue, Helvetica, Arial, sans-serif"> Nfr</text></g><g class="node" aria-label="graph-node4411" transform="translate(698.407874591835,23.23986431504912)"><circle class="b-outline" cx="0" cy="0" r="25" fill="#C990C0" stroke="#b261a5" stroke-width="2px"/><text class="caption" text-anchor="middle" pointer-events="none" x="0" y="5" font-size="10px" fill="#FFFFFF" font-family="Helvetica Neue, Helvetica, Arial, sans-serif"> Covenant</text></g><g class="node" aria-label="graph-node3952" transform="translate(555.9022148368739,13.702015871737654)"><circle class="b-outline" cx="0" cy="0" r="25" fill="#C990C0" stroke="#b261a5" stroke-width="2px"/><text class="caption" text-anchor="middle" pointer-events="none" x="0" y="5" font-size="10px" fill="#FFFFFF" font-family="Helvetica Neue, Helvetica, Arial, sans-serif"> Extraterr…</text></g><g class="node" aria-label="graph-node5143" transform="translate(529.9704826513886,-172.36604288959296)"><circle class="b-outline" cx="0" cy="0" r="25" fill="#C990C0" stroke="#b261a5" stroke-width="2px"/><text class="caption" text-anchor="middle" pointer-events="none" x="0" y="5" font-size="10px" fill="#FFFFFF" font-family="Helvetica Neue, Helvetica, Arial, sans-serif"> L'Inferno</text></g><g class="node" aria-label="graph-node5884" transform="translate(666.7730287379595,-212.31663795177238)"><circle class="b-outline" cx="0" cy="0" r="25" fill="#C990C0" stroke="#b261a5" stroke-width="2px"/><text class="caption" text-anchor="middle" pointer-events="none" x="0" y="0" font-size="10px" fill="#FFFFFF" font-family="Helvetica Neue, Helvetica, Arial, sans-serif"> Three</text><text class="caption" text-anchor="middle" pointer-events="none" x="0" y="10" font-size="10px" fill="#FFFFFF" font-family="Helvetica Neue, Helvetica, Arial, sans-serif"> Artists</text></g><g class="node" aria-label="graph-node4053" transform="translate(345.3392645691732,-230.82608576924935)"><circle class="b-outline" cx="0" cy="0" r="25" fill="#C990C0" stroke="#b261a5" stroke-width="2px"/><text class="caption" text-anchor="middle" pointer-events="none" x="0" y="-5" font-size="10px" fill="#FFFFFF" font-family="Helvetica Neue, Helvetica, Arial, sans-serif"> ,</text><text class="caption" text-anchor="middle" pointer-events="none" x="0" y="5" font-size="10px" fill="#FFFFFF" font-family="Helvetica Neue, Helvetica, Arial, sans-serif"> Universal</text><text class="caption" text-anchor="middle" pointer-events="none" x="0" y="15" font-size="10px" fill="#FFFFFF" font-family="Helvetica Neue, Helvetica, Arial, sans-serif"> Pict…</text></g><g class="node" aria-label="graph-node5686" transform="translate(240.7723685206531,-134.28127341874256)"><circle class="b-outline" cx="0" cy="0" r="25" fill="#C990C0" stroke="#b261a5" stroke-width="2px"/><text class="caption" text-anchor="middle" pointer-events="none" x="0" y="5" font-size="10px" fill="#FFFFFF" font-family="Helvetica Neue, Helvetica, Arial, sans-serif"> Process</text></g><g class="node" aria-label="graph-node5738" transform="translate(605.5871726664483,-422.0787253412164)"><circle class="b-outline" cx="0" cy="0" r="25" fill="#C990C0" stroke="#b261a5" stroke-width="2px"/><text class="caption" text-anchor="middle" pointer-events="none" x="0" y="5" font-size="10px" fill="#FFFFFF" font-family="Helvetica Neue, Helvetica, Arial, sans-serif"> Tnt</text></g><g class="node" aria-label="graph-node4712" transform="translate(478.2147469873974,-484.5678575609704)"><circle class="b-outline" cx="0" cy="0" r="25" fill="#C990C0" stroke="#b261a5" stroke-width="2px"/><text class="caption" text-anchor="middle" pointer-events="none" x="0" y="5" font-size="10px" fill="#FFFFFF" font-family="Helvetica Neue, Helvetica, Arial, sans-serif"> Three-Y…</text></g><g class="node" aria-label="graph-node6620" transform="translate(280.9483601292179,-433.4851347815068)"><circle class="b-outline" cx="0" cy="0" r="25" fill="#C990C0" stroke="#b261a5" stroke-width="2px"/><text class="caption" text-anchor="middle" pointer-events="none" x="0" y="0" font-size="10px" fill="#FFFFFF" font-family="Helvetica Neue, Helvetica, Arial, sans-serif"> Paul</text><text class="caption" text-anchor="middle" pointer-events="none" x="0" y="10" font-size="10px" fill="#FFFFFF" font-family="Helvetica Neue, Helvetica, Arial, sans-serif"> Arendt</text></g><g class="node" aria-label="graph-node6051" transform="translate(313.043273907608,-573.6057950713964)"><circle class="b-outline" cx="0" cy="0" r="25" fill="#C990C0" stroke="#b261a5" stroke-width="2px"/><text class="caption" text-anchor="middle" pointer-events="none" x="0" y="5" font-size="10px" fill="#FFFFFF" font-family="Helvetica Neue, Helvetica, Arial, sans-serif"> Bbc</text></g><g class="node" aria-label="graph-node7006" transform="translate(96.5065676143674,-506.8912813806914)"><circle class="b-outline" cx="0" cy="0" r="25" fill="#C990C0" stroke="#b261a5" stroke-width="2px"/><text class="caption" text-anchor="middle" pointer-events="none" x="0" y="5" font-size="10px" fill="#FFFFFF" font-family="Helvetica Neue, Helvetica, Arial, sans-serif"> Hackett</text></g><g class="node" aria-label="graph-node7116" transform="translate(75.93919944475653,-364.7293974069628)"><circle class="b-outline" cx="0" cy="0" r="25" fill="#C990C0" stroke="#b261a5" stroke-width="2px"/><text class="caption" text-anchor="middle" pointer-events="none" x="0" y="0" font-size="10px" fill="#FFFFFF" font-family="Helvetica Neue, Helvetica, Arial, sans-serif"> Ubs</text><text class="caption" text-anchor="middle" pointer-events="none" x="0" y="10" font-size="10px" fill="#FFFFFF" font-family="Helvetica Neue, Helvetica, Arial, sans-serif"> Execut…</text></g><g class="node" aria-label="graph-node4486" transform="translate(92.02506367900781,-728.1656689993449)"><circle class="b-outline" cx="0" cy="0" r="25" fill="#C990C0" stroke="#b261a5" stroke-width="2px"/><text class="caption" text-anchor="middle" pointer-events="none" x="0" y="5" font-size="10px" fill="#FFFFFF" font-family="Helvetica Neue, Helvetica, Arial, sans-serif"> Rumma…</text></g><g class="node" aria-label="graph-node6957" transform="translate(-51.18746425086178,-724.6950462127094)"><circle class="b-outline" cx="0" cy="0" r="25" fill="#C990C0" stroke="#b261a5" stroke-width="2px"/><text class="caption" text-anchor="middle" pointer-events="none" x="0" y="5" font-size="10px" fill="#FFFFFF" font-family="Helvetica Neue, Helvetica, Arial, sans-serif"> Yahoo</text></g><g class="node" aria-label="graph-node4308" transform="translate(-122.54874392696513,-447.9762136138077)"><circle class="b-outline" cx="0" cy="0" r="25" fill="#C990C0" stroke="#b261a5" stroke-width="2px"/><text class="caption" text-anchor="middle" pointer-events="none" x="0" y="5" font-size="10px" fill="#FFFFFF" font-family="Helvetica Neue, Helvetica, Arial, sans-serif"> Ivory</text></g><g class="node" aria-label="graph-node3806" transform="translate(-193.84965175298612,-571.6713177233335)"><circle class="b-outline" cx="0" cy="0" r="25" fill="#C990C0" stroke="#b261a5" stroke-width="2px"/><text class="caption" text-anchor="middle" pointer-events="none" x="0" y="5" font-size="10px" fill="#FFFFFF" font-family="Helvetica Neue, Helvetica, Arial, sans-serif"> Mr</text></g><g class="node" aria-label="graph-node6961" transform="translate(-26.739086598362373,-56.140659419433035)"><circle class="b-outline" cx="0" cy="0" r="25" fill="#C990C0" stroke="#b261a5" stroke-width="2px"/><text class="caption" text-anchor="middle" pointer-events="none" x="0" y="5" font-size="10px" fill="#FFFFFF" font-family="Helvetica Neue, Helvetica, Arial, sans-serif"> Docume…</text></g><g class="node" aria-label="graph-node5140" transform="translate(-72.07583980174452,-189.38837611861413)"><circle class="b-outline" cx="0" cy="0" r="25" fill="#C990C0" stroke="#b261a5" stroke-width="2px"/><text class="caption" text-anchor="middle" pointer-events="none" x="0" y="5" font-size="10px" fill="#FFFFFF" font-family="Helvetica Neue, Helvetica, Arial, sans-serif"> Category</text></g><g class="node" aria-label="graph-node6497" transform="translate(-390.05154020765644,-581.9688949467496)"><circle class="b-outline" cx="0" cy="0" r="25" fill="#C990C0" stroke="#b261a5" stroke-width="2px"/><text class="caption" text-anchor="middle" pointer-events="none" x="0" y="5" font-size="10px" fill="#FFFFFF" font-family="Helvetica Neue, Helvetica, Arial, sans-serif"> Fujifilm</text></g><g class="node" aria-label="graph-node4421" transform="translate(-516.2964172441357,-515.978154048609)"><circle class="b-outline" cx="0" cy="0" r="25" fill="#C990C0" stroke="#b261a5" stroke-width="2px"/><text class="caption" text-anchor="middle" pointer-events="none" x="0" y="5" font-size="10px" fill="#FFFFFF" font-family="Helvetica Neue, Helvetica, Arial, sans-serif"> April</text></g><g class="node" aria-label="graph-node5727" transform="translate(-255.99134451092593,-233.15125435327082)"><circle class="b-outline" cx="0" cy="0" r="25" fill="#C990C0" stroke="#b261a5" stroke-width="2px"/><text class="caption" text-anchor="middle" pointer-events="none" x="0" y="5" font-size="10px" fill="#FFFFFF" font-family="Helvetica Neue, Helvetica, Arial, sans-serif"> Horror-T…</text></g><g class="node" aria-label="graph-node4011" transform="translate(-341.5146898404541,-346.9996557512185)"><circle class="b-outline" cx="0" cy="0" r="25" fill="#C990C0" stroke="#b261a5" stroke-width="2px"/><text class="caption" text-anchor="middle" pointer-events="none" x="0" y="5" font-size="10px" fill="#FFFFFF" font-family="Helvetica Neue, Helvetica, Arial, sans-serif"> Develop…</text></g><g class="node" aria-label="graph-node5641" transform="translate(-622.4007212540773,-298.02525328533494)"><circle class="b-outline" cx="0" cy="0" r="25" fill="#C990C0" stroke="#b261a5" stroke-width="2px"/><text class="caption" text-anchor="middle" pointer-events="none" x="0" y="0" font-size="10px" fill="#FFFFFF" font-family="Helvetica Neue, Helvetica, Arial, sans-serif"> Joe</text><text class="caption" text-anchor="middle" pointer-events="none" x="0" y="10" font-size="10px" fill="#FFFFFF" font-family="Helvetica Neue, Helvetica, Arial, sans-serif"> Morton</text></g><g class="node" aria-label="graph-node6400" transform="translate(-502.20994823936616,-221.13419062867507)"><circle class="b-outline" cx="0" cy="0" r="25" fill="#C990C0" stroke="#b261a5" stroke-width="2px"/><text class="caption" text-anchor="middle" pointer-events="none" x="0" y="5" font-size="10px" fill="#FFFFFF" font-family="Helvetica Neue, Helvetica, Arial, sans-serif"> Older Dr</text></g><g class="node" aria-label="graph-node4738" transform="translate(-661.5462190316684,-87.07172672324405)"><circle class="b-outline" cx="0" cy="0" r="25" fill="#C990C0" stroke="#b261a5" stroke-width="2px"/><text class="caption" text-anchor="middle" pointer-events="none" x="0" y="0" font-size="10px" fill="#FFFFFF" font-family="Helvetica Neue, Helvetica, Arial, sans-serif"> Juvenile</text><text class="caption" text-anchor="middle" pointer-events="none" x="0" y="10" font-size="10px" fill="#FFFFFF" font-family="Helvetica Neue, Helvetica, Arial, sans-serif"> Stars</text></g><g class="node" aria-label="graph-node6838" transform="translate(-745.394491923064,27.1749605963307)"><circle class="b-outline" cx="0" cy="0" r="25" fill="#C990C0" stroke="#b261a5" stroke-width="2px"/><text class="caption" text-anchor="middle" pointer-events="none" x="0" y="5" font-size="10px" fill="#FFFFFF" font-family="Helvetica Neue, Helvetica, Arial, sans-serif"> Box-Offi…</text></g><g class="node" aria-label="graph-node4846" transform="translate(-308.44403489500877,2.973510807926006)"><circle class="b-outline" cx="0" cy="0" r="25" fill="#C990C0" stroke="#b261a5" stroke-width="2px"/><text class="caption" text-anchor="middle" pointer-events="none" x="0" y="5" font-size="10px" fill="#FFFFFF" font-family="Helvetica Neue, Helvetica, Arial, sans-serif"> Cast</text></g><g class="node" aria-label="graph-node4461" transform="translate(-449.44222347294607,20.04421537949936)"><circle class="b-outline" cx="0" cy="0" r="25" fill="#C990C0" stroke="#b261a5" stroke-width="2px"/><text class="caption" text-anchor="middle" pointer-events="none" x="0" y="-5" font-size="10px" fill="#FFFFFF" font-family="Helvetica Neue, Helvetica, Arial, sans-serif"> Pepper'S</text><text class="caption" text-anchor="middle" pointer-events="none" x="0" y="5" font-size="10px" fill="#FFFFFF" font-family="Helvetica Neue, Helvetica, Arial, sans-serif"> Ghost</text><text class="caption" text-anchor="middle" pointer-events="none" x="0" y="15" font-size="10px" fill="#FFFFFF" font-family="Helvetica Neue, Helvetica, Arial, sans-serif"> Holo</text></g><g class="node" aria-label="graph-node6211" transform="translate(-635.1107788598928,233.15940403881112)"><circle class="b-outline" cx="0" cy="0" r="25" fill="#C990C0" stroke="#b261a5" stroke-width="2px"/><text class="caption" text-anchor="middle" pointer-events="none" x="0" y="5" font-size="10px" fill="#FFFFFF" font-family="Helvetica Neue, Helvetica, Arial, sans-serif"> Series</text></g><g class="node" aria-label="graph-node5919" transform="translate(-494.44828613979615,205.5530840196351)"><circle class="b-outline" cx="0" cy="0" r="25" fill="#C990C0" stroke="#b261a5" stroke-width="2px"/><text class="caption" text-anchor="middle" pointer-events="none" x="0" y="0" font-size="10px" fill="#FFFFFF" font-family="Helvetica Neue, Helvetica, Arial, sans-serif"> His</text><text class="caption" text-anchor="middle" pointer-events="none" x="0" y="10" font-size="10px" fill="#FFFFFF" font-family="Helvetica Neue, Helvetica, Arial, sans-serif"> Spook…</text></g><g class="node" aria-label="graph-node7121" transform="translate(-505.81087715295115,398.2859775600081)"><circle class="b-outline" cx="0" cy="0" r="25" fill="#C990C0" stroke="#b261a5" stroke-width="2px"/><text class="caption" text-anchor="middle" pointer-events="none" x="0" y="0" font-size="10px" fill="#FFFFFF" font-family="Helvetica Neue, Helvetica, Arial, sans-serif"> Certain</text><text class="caption" text-anchor="middle" pointer-events="none" x="0" y="10" font-size="10px" fill="#FFFFFF" font-family="Helvetica Neue, Helvetica, Arial, sans-serif"> Archet…</text></g><g class="node" aria-label="graph-node5550" transform="translate(-525.7735073766205,538.4271306958854)"><circle class="b-outline" cx="0" cy="0" r="25" fill="#C990C0" stroke="#b261a5" stroke-width="2px"/><text class="caption" text-anchor="middle" pointer-events="none" x="0" y="-5" font-size="10px" fill="#FFFFFF" font-family="Helvetica Neue, Helvetica, Arial, sans-serif"> Many</text><text class="caption" text-anchor="middle" pointer-events="none" x="0" y="5" font-size="10px" fill="#FFFFFF" font-family="Helvetica Neue, Helvetica, Arial, sans-serif"> Film</text><text class="caption" text-anchor="middle" pointer-events="none" x="0" y="15" font-size="10px" fill="#FFFFFF" font-family="Helvetica Neue, Helvetica, Arial, sans-serif"> Noirs</text></g><g class="node" aria-label="graph-node5811" transform="translate(-185.86088509839792,200.48001051905524)"><circle class="b-outline" cx="0" cy="0" r="25" fill="#C990C0" stroke="#b261a5" stroke-width="2px"/><text class="caption" text-anchor="middle" pointer-events="none" x="0" y="0" font-size="10px" fill="#FFFFFF" font-family="Helvetica Neue, Helvetica, Arial, sans-serif"> Temuera</text><text class="caption" text-anchor="middle" pointer-events="none" x="0" y="10" font-size="10px" fill="#FFFFFF" font-family="Helvetica Neue, Helvetica, Arial, sans-serif"> Morris…</text></g><g class="node" aria-label="graph-node7075" transform="translate(-278.4933033036706,307.78581045454456)"><circle class="b-outline" cx="0" cy="0" r="25" fill="#C990C0" stroke="#b261a5" stroke-width="2px"/><text class="caption" text-anchor="middle" pointer-events="none" x="0" y="0" font-size="10px" fill="#FFFFFF" font-family="Helvetica Neue, Helvetica, Arial, sans-serif"> Tom</text><text class="caption" text-anchor="middle" pointer-events="none" x="0" y="10" font-size="10px" fill="#FFFFFF" font-family="Helvetica Neue, Helvetica, Arial, sans-serif"> Curry</text></g><g class="node" aria-label="graph-node4044" transform="translate(-301.5890859274797,619.0285511680406)"><circle class="b-outline" cx="0" cy="0" r="25" fill="#C990C0" stroke="#b261a5" stroke-width="2px"/><text class="caption" text-anchor="middle" pointer-events="none" x="0" y="-5" font-size="10px" fill="#FFFFFF" font-family="Helvetica Neue, Helvetica, Arial, sans-serif"> Tamil</text><text class="caption" text-anchor="middle" pointer-events="none" x="0" y="5" font-size="10px" fill="#FFFFFF" font-family="Helvetica Neue, Helvetica, Arial, sans-serif"> Language</text><text class="caption" text-anchor="middle" pointer-events="none" x="0" y="15" font-size="10px" fill="#FFFFFF" font-family="Helvetica Neue, Helvetica, Arial, sans-serif"> Film</text></g><g class="node" aria-label="graph-node3847" transform="translate(-241.8152492272837,488.9045696050282)"><circle class="b-outline" cx="0" cy="0" r="25" fill="#C990C0" stroke="#b261a5" stroke-width="2px"/><text class="caption" text-anchor="middle" pointer-events="none" x="0" y="0" font-size="10px" fill="#FFFFFF" font-family="Helvetica Neue, Helvetica, Arial, sans-serif"> Multiple</text><text class="caption" text-anchor="middle" pointer-events="none" x="0" y="10" font-size="10px" fill="#FFFFFF" font-family="Helvetica Neue, Helvetica, Arial, sans-serif"> F…</text></g><g class="node" aria-label="graph-node6612" transform="translate(18.82477266529146,517.8798943920145)"><circle class="b-outline" cx="0" cy="0" r="25" fill="#C990C0" stroke="#b261a5" stroke-width="2px"/><text class="caption" text-anchor="middle" pointer-events="none" x="0" y="0" font-size="10px" fill="#FFFFFF" font-family="Helvetica Neue, Helvetica, Arial, sans-serif"> Indian</text><text class="caption" text-anchor="middle" pointer-events="none" x="0" y="10" font-size="10px" fill="#FFFFFF" font-family="Helvetica Neue, Helvetica, Arial, sans-serif"> Films</text></g><g class="node" aria-label="graph-node7053" transform="translate(-22.755822241048183,664.4923425957481)"><circle class="b-outline" cx="0" cy="0" r="25" fill="#C990C0" stroke="#b261a5" stroke-width="2px"/><text class="caption" text-anchor="middle" pointer-events="none" x="0" y="5" font-size="10px" fill="#FFFFFF" font-family="Helvetica Neue, Helvetica, Arial, sans-serif"> Internati…</text></g></g></svg>